<?xml version="1.0" encoding="utf-8"?>
<!-- Generator: Adobe Illustrator 24.1.2, SVG Export Plug-In . SVG Version: 6.00 Build 0)  -->
<svg version="1.1" id="Camada_1" xmlns="http://www.w3.org/2000/svg" xmlns:xlink="http://www.w3.org/1999/xlink" x="0px" y="0px"
	 viewBox="0 0 21.5 23.6" style="enable-background:new 0 0 21.5 23.6;" xml:space="preserve">
<desc>Created with Sketch.</desc>
<g>
	<path d="M5.8,7v12c0,0.6,0.4,1,1,1h8c0.6,0,1-0.4,1-1V7H5.8z M4.8,5h12c0.6,0,1,0.4,1,1v13c0,1.7-1.3,3-3,3h-8c-1.7,0-3-1.3-3-3V6
		C3.8,5.4,4.3,5,4.8,5z"/>
	<path d="M2.8,7c-0.6,0-1-0.4-1-1s0.4-1,1-1h16c0.6,0,1,0.4,1,1s-0.4,1-1,1H2.8z"/>
	<path d="M8.8,4c-0.6,0-1-0.4-1-1s0.4-1,1-1h4c0.6,0,1,0.4,1,1s-0.4,1-1,1H8.8z"/>
	<path d="M7.8,10c0-0.6,0.4-1,1-1c0.6,0,1,0.4,1,1v6c0,0.6-0.4,1-1,1c-0.6,0-1-0.4-1-1V10z"/>
	<path d="M11.8,10c0-0.6,0.4-1,1-1s1,0.4,1,1v6c0,0.6-0.4,1-1,1s-1-0.4-1-1V10z"/>
</g>
</svg>
